<svg width="221" height="43" viewBox="0 0 221 43" fill="none" xmlns="http://www.w3.org/2000/svg">
<path d="M39 12H45L35.1 42H29.22L22.5 20.94L15.78 42H9.9L0 12H6L12.84 34.26L19.56 12H25.44L32.16 34.26L39 12ZM60.3394 42.48C56.0594 42.48 52.3994 40.98 49.3594 37.98C46.3594 34.94 44.8594 31.28 44.8594 27C44.8594 22.72 46.3594 19.08 49.3594 16.08C52.3994 13.04 56.0594 11.52 60.3394 11.52C64.6194 11.52 68.2594 13.04 71.2594 16.08C74.2594 19.08 75.7594 22.72 75.7594 27V42H69.8794V37.26C69.1594 38.74 67.8994 39.98 66.0994 40.98C64.3394 41.98 62.4194 42.48 60.3394 42.48ZM53.4994 33.96C55.3794 35.84 57.6794 36.78 60.3994 36.78C63.1194 36.78 65.3794 35.84 67.1794 33.96C69.0194 32.08 69.9394 29.76 69.9394 27C69.9394 24.24 69.0194 21.92 67.1794 20.04C65.3794 18.16 63.1194 17.22 60.3994 17.22C57.6394 17.22 55.3394 18.16 53.4994 20.04C51.6594 21.92 50.7394 24.24 50.7394 27C50.7394 29.72 51.6594 32.04 53.4994 33.96ZM92.9358 17.7H86.4558V27.78C86.4558 33.22 88.6158 36.12 92.9358 36.48V42.18C89.1358 42.02 86.1158 40.76 83.8758 38.4C81.6758 36 80.5758 32.48 80.5758 27.84V17.7H76.1358V12H80.5758V1.26H86.4558V12H92.9358V17.7ZM109.91 42.48C105.63 42.48 101.97 40.98 98.9297 37.98C95.9297 34.94 94.4297 31.28 94.4297 27C94.4297 22.72 95.9297 19.08 98.9297 16.08C101.97 13.04 105.63 11.52 109.91 11.52C113.15 11.52 116.07 12.44 118.67 14.28C121.27 16.12 123.11 18.5 124.19 21.42H117.89C116.01 18.62 113.37 17.22 109.97 17.22C107.21 17.22 104.91 18.16 103.07 20.04C101.23 21.92 100.31 24.24 100.31 27C100.31 29.72 101.23 32.04 103.07 33.96C104.95 35.84 107.25 36.78 109.97 36.78C113.33 36.78 115.93 35.42 117.77 32.7H124.19C123.11 35.62 121.27 37.98 118.67 39.78C116.07 41.58 113.15 42.48 109.91 42.48ZM140.742 11.52C144.742 11.52 147.942 12.76 150.342 15.24C152.742 17.68 153.942 21.34 153.942 26.22V42H148.062V26.22C148.062 20.22 145.622 17.22 140.742 17.22C135.862 17.22 133.422 20.18 133.422 26.1V42H127.542V-2.86102e-06H133.422V14.7C135.102 12.58 137.542 11.52 140.742 11.52ZM164.008 42H158.128V-2.86102e-06H164.008V42ZM172.392 7.86C171.352 7.86 170.492 7.52 169.812 6.84C169.132 6.12 168.792 5.26 168.792 4.26C168.792 3.26 169.132 2.42 169.812 1.74C170.492 1.02 171.352 0.659999 172.392 0.659999C173.392 0.659999 174.232 1.02 174.912 1.74C175.592 2.42 175.932 3.26 175.932 4.26C175.932 5.26 175.592 6.12 174.912 6.84C174.232 7.52 173.392 7.86 172.392 7.86ZM169.452 42V12H175.332V42H169.452ZM190.675 42.48C187.395 42.48 184.615 41.64 182.335 39.96C180.055 38.24 178.915 35.92 178.915 33H184.555C184.555 34.28 185.135 35.3 186.295 36.06C187.495 36.82 188.995 37.2 190.795 37.2C192.635 37.2 194.055 36.84 195.055 36.12C196.055 35.4 196.555 34.44 196.555 33.24C196.555 32 195.955 31.06 194.755 30.42C193.595 29.78 192.175 29.3 190.495 28.98C188.815 28.62 187.135 28.22 185.455 27.78C183.775 27.3 182.335 26.42 181.135 25.14C179.975 23.86 179.395 22.14 179.395 19.98C179.395 17.5 180.455 15.48 182.575 13.92C184.695 12.32 187.335 11.52 190.495 11.52C193.695 11.52 196.315 12.32 198.355 13.92C200.435 15.52 201.475 17.72 201.475 20.52H195.835C195.835 19.4 195.295 18.5 194.215 17.82C193.175 17.1 191.895 16.74 190.375 16.74C188.895 16.74 187.675 17.08 186.715 17.76C185.755 18.44 185.275 19.32 185.275 20.4C185.275 21.48 185.855 22.32 187.015 22.92C188.175 23.48 189.595 23.92 191.275 24.24C192.955 24.56 194.635 24.98 196.315 25.5C197.995 25.98 199.415 26.88 200.575 28.2C201.775 29.48 202.395 31.2 202.435 33.36C202.475 36.32 201.395 38.58 199.195 40.14C197.035 41.7 194.195 42.48 190.675 42.48ZM220.201 17.7H213.721V27.78C213.721 33.22 215.881 36.12 220.201 36.48V42.18C216.401 42.02 213.381 40.76 211.141 38.4C208.941 36 207.841 32.48 207.841 27.84V17.7H203.401V12H207.841V1.26H213.721V12H220.201V17.7Z" fill="black"/>
</svg>
